<?xml version="1.0" encoding="UTF-8" standalone="no"?>
<!DOCTYPE svg PUBLIC "-//W3C//DTD SVG 1.1//EN" "http://www.w3.org/Graphics/SVG/1.1/DTD/svg11.dtd">
<svg width="100%" height="100%" viewBox="0 0 444 512" version="1.1" xmlns="http://www.w3.org/2000/svg" xmlns:xlink="http://www.w3.org/1999/xlink" xml:space="preserve" xmlns:serif="http://www.serif.com/" style="fill-rule:evenodd;clip-rule:evenodd;stroke-linejoin:round;stroke-miterlimit:2;">
    <g transform="matrix(1,0,0,1,-34.2975,-7.10543e-14)">
        <g transform="matrix(1,0,0,0.879725,0,61.5808)">
            <g transform="matrix(1.31282,1.11022e-16,1.11022e-16,1.49231,-124.718,-190.877)">
                <path d="M290,81L458.875,178.5L458.875,373.5L290,471L121.125,373.5L121.125,178.5L290,81Z" style="fill:rgb(41,98,255);"/>
                <clipPath id="_clip1">
                    <path d="M290,81L458.875,178.5L458.875,373.5L290,471L121.125,373.5L121.125,178.5L290,81Z"/>
                </clipPath>
                <g clip-path="url(#_clip1)">
                    <g transform="matrix(0.761719,0,0,0.761719,95,81)">
                        <path d="M85,42L34.297,130L34.297,539L373,588L85,42Z" style="fill:rgb(0,61,227);"/>
                        <clipPath id="_clip2">
                            <path d="M85,42L34.297,130L34.297,539L373,588L85,42Z"/>
                        </clipPath>
                        <g clip-path="url(#_clip2)">
                            <path d="M256,315L0,287L34.297,539L373,588L256,315Z" style="fill:rgb(0,48,178);"/>
                        </g>
                    </g>
                    <g transform="matrix(0.565319,-0.703096,0.59363,0.477304,36.3985,-20.7551)">
                        <path d="M256,315L88.241,343.172L16.709,570.404L373,588L256,315Z" style="fill:rgb(11,76,255);"/>
                    </g>
                    <g transform="matrix(-0.666355,-0.369034,0.369034,-0.666355,420.262,530.355)">
                        <path d="M85,42L34.297,130L34.297,539L373,588L85,42Z" style="fill:rgb(88,133,255);"/>
                        <clipPath id="_clip3">
                            <path d="M85,42L34.297,130L34.297,539L373,588L85,42Z"/>
                        </clipPath>
                        <g clip-path="url(#_clip3)">
                            <path d="M256,315L0,287L34.297,539L373,588L256,315Z" style="fill:rgb(129,163,255);"/>
                        </g>
                    </g>
                </g>
            </g>
            <g transform="matrix(470.627,0,0,534.971,133.206,424.824)">
                <path d="M0.173,-0.035C0.312,-0.035 0.374,-0.118 0.374,-0.228L0.374,-0.727L0.249,-0.727L0.249,-0.238C0.249,-0.169 0.215,-0.135 0.147,-0.135C0.101,-0.135 0.063,-0.145 0.036,-0.154L0.036,-0.063C0.071,-0.045 0.11,-0.035 0.173,-0.035Z" style="fill:white;fill-rule:nonzero;"/>
                <clipPath id="_clip4">
                    <path d="M0.173,-0.035C0.312,-0.035 0.374,-0.118 0.374,-0.228L0.374,-0.727L0.249,-0.727L0.249,-0.238C0.249,-0.169 0.215,-0.135 0.147,-0.135C0.101,-0.135 0.063,-0.145 0.036,-0.154L0.036,-0.063C0.071,-0.045 0.11,-0.035 0.173,-0.035Z" clip-rule="nonzero"/>
                </clipPath>
                <g clip-path="url(#_clip4)">
                    <g transform="matrix(0.00234281,1.73461e-19,1.98126e-19,0.00233158,-0.290517,-0.921875)">
                        <path d="M85,42L34.297,130L34.297,539L373,588L85,42Z" style="fill:rgb(218,237,253);"/>
                    </g>
                    <g transform="matrix(0.00173875,-0.00215214,0.00182582,0.001461,-0.688681,-0.734334)">
                        <path d="M256,315L88.241,343.172L16.709,570.404L373,588L256,315Z" style="fill:rgb(187,222,251);"/>
                    </g>
                    <g transform="matrix(-0.0020495,-0.00112959,0.00113504,-0.00203968,0.331536,-0.3775)">
                        <path d="M85,42L34.297,130L34.297,539L373,588L85,42Z" style="fill:rgb(135,197,248);"/>
                    </g>
                    <g transform="matrix(-0.0020495,-0.00112959,0.00113504,-0.00203968,0.331536,-0.0672759)">
                        <path d="M138.891,176.75L16.827,67.795L34.297,539L138.891,176.75Z" style="fill:rgb(211,235,255);"/>
                    </g>
                </g>
            </g>
        </g>
    </g>
</svg>
